<?xml version="1.0" encoding="utf-8"?>
<!-- Generator: Adobe Illustrator 16.0.0, SVG Export Plug-In . SVG Version: 6.00 Build 0)  -->
<!DOCTYPE svg PUBLIC "-//W3C//DTD SVG 1.1//EN" "http://www.w3.org/Graphics/SVG/1.1/DTD/svg11.dtd">
<svg version="1.1" id="Layer_1" xmlns="http://www.w3.org/2000/svg" xmlns:xlink="http://www.w3.org/1999/xlink" x="0px" y="0px"
	 width="800px" height="500px" viewBox="0 0 800 500" enable-background="new 0 0 800 500" xml:space="preserve">
<text transform="matrix(1 0 0 1 140.1074 51.541)" fill="#F3B175" font-family="'MyriadPro-Regular'" font-size="39">Alongamento de virilha e costas</text>
<rect x="188.253" y="88.247" fill="none" width="199.748" height="323.507"/>
<text transform="matrix(1 0 0 1 188.2529 100.3174)"><tspan x="0" y="0" fill="#B3B3B3" font-family="'MyriadPro-Regular'" font-size="17">Sente no chão com os joel</tspan><tspan x="185.025" y="0" fill="#B3B3B3" font-family="'MyriadPro-Regular'" font-size="17">-</tspan><tspan x="0" y="20.399" fill="#B3B3B3" font-family="'MyriadPro-Regular'" font-size="17">hos flexionados e pés </tspan><tspan x="0" y="40.8" fill="#B3B3B3" font-family="'MyriadPro-Regular'" font-size="17">unidos. Entrelace os dedos </tspan><tspan x="0" y="61.2" fill="#B3B3B3" font-family="'MyriadPro-Regular'" font-size="17">atrás da cabeça.</tspan><tspan x="0" y="102.001" fill="#B3B3B3" font-family="'MyriadPro-Regular'" font-size="17">Essa será sua posição inicial. </tspan><tspan x="0" y="122.399" fill="#B3B3B3" font-family="'MyriadPro-Regular'" font-size="17">Flexione o tronco para a </tspan><tspan x="0" y="142.8" fill="#B3B3B3" font-family="'MyriadPro-Regular'" font-size="17">frente, trazendo os cotove</tspan><tspan x="185.144" y="142.8" fill="#B3B3B3" font-family="'MyriadPro-Regular'" font-size="17">-</tspan><tspan x="0" y="163.2" fill="#B3B3B3" font-family="'MyriadPro-Regular'" font-size="17">los para dentro das pernas. </tspan><tspan x="0" y="183.601" fill="#B3B3B3" font-family="'MyriadPro-Regular'" font-size="17">Depois de uma breve </tspan><tspan x="0" y="204.001" fill="#B3B3B3" font-family="'MyriadPro-Regular'" font-size="17">pausa, retorne para a </tspan><tspan x="0" y="224.399" fill="#B3B3B3" font-family="'MyriadPro-Regular'" font-size="17">posição inicial com a cabeça </tspan><tspan x="0" y="244.8" fill="#B3B3B3" font-family="'MyriadPro-Regular'" font-size="17">para cima e as costas retas.</tspan><tspan x="0" y="285.601" fill="#B3B3B3" font-family="'MyriadPro-Regular'" font-size="17">Repita de 10 a 20 vezes.</tspan></text>
<g>
	<path fill-rule="evenodd" clip-rule="evenodd" fill="#F3B175" d="M527.962,309.476c-0.447-19.647-3.768-38.947-7.19-58.22
		c-4.476-25.232-2.664-28.782,21.126-39.378c-0.724,13.603-5.417,26.672-4.376,40.608c1.732,23.249,3.23,25.226,26.448,24.995
		c19.812-0.196,24.162,3.656,26.948-26.139c1.281-13.668-4.604-26.037-4.547-39.294c23.052,9.667,25.546,14.496,21.418,38.401
		c-3.413,19.764-6.262,39.63-9.359,59.45c-2.535,8.309-6.856,16.279-5.751,26.21c4.922-3.248,8.813-5.837,12.722-8.392
		c12.515-8.174,19.132-4.864,21.953,10.961c-2.925,3.108-7.096,3.194-10.789,4.426c-13.85,4.617-28.015,8.482-40.33,16.789
		c-8.011,0.023-16.021,0.049-24.03,0.076c-15.64-10.447-34.425-13.297-51.126-21.182c-0.501-6.224,1.906-11.113,7.231-14.227
		c11.621-6.8,16.132,9.99,26.973,7.989C535.909,323.941,531.795,316.749,527.962,309.476z M564.521,338.172c0,0.023,0,0.048,0,0.07
		c2.397,0,4.8,0.064,7.192-0.009c10.387-0.321,12.196-7.037,11.678-15.595c-0.687-11.359-7.852-3.896-12.189-4.107
		c-5.176-0.252-10.384,0.155-15.582,0.284c-4.742,0.118-10.165-0.726-10.717,6.307c-0.571,7.255,4.341,10.8,10.096,12.872
		C557.826,339.011,561.327,338.172,564.521,338.172z"/>
	<path fill-rule="evenodd" clip-rule="evenodd" fill="#F3B175" d="M546.755,208.745c0.932-2.139,7.444-2.933,0.407-6.813
		c-7.732-4.265-12.913-11.373-8.939-21.4c3.82,1.16,7.618,2.44,11.487,3.431c1.771,0.451,5.207,0.498,4.217-1.833
		c-1.996-4.702-1.381-7.165,3.746-6.526c4.748,0.594,4.86,4.958,4.256,8.54c-1.707,10.133,4.411,11.481,12.113,11.33
		c2,4.812,2.501,10.461,7.574,13.557c0.039,9.241,0.626,18.515-0.018,27.703c-0.758,10.732-8.889,14.343-17.879,13.481
		c-8.299-0.792-19.244,0.563-19.03-14.004C544.821,226.951,546.727,217.939,546.755,208.745z"/>
	<path fill-rule="evenodd" clip-rule="evenodd" fill="#46444C" d="M627.354,338.68c-2.821-15.825-9.438-19.135-21.953-10.961
		c-3.909,2.555-7.8,5.144-12.722,8.392c-1.105-9.931,3.216-17.901,5.751-26.21c16.888-5.094,33.412-11.54,50.872-14.477
		c5.541-0.932,12.593-3.852,16.269,3.146c3.403,6.47,1.925,13.308-1.944,19.464c-5.153,8.204-13.712,12.078-21.575,16.827
		C637.148,336.134,632.252,337.405,627.354,338.68z"/>
	<path fill-rule="evenodd" clip-rule="evenodd" fill="#46444C" d="M527.962,309.476c3.833,7.273,7.947,14.466,7.32,23.076
		c-10.841,2.001-15.352-14.789-26.973-7.989c-5.325,3.113-7.732,8.003-7.228,14.223c-5.414,0.677-9.693-3.064-14.744-3.793
		c-8.171-4.951-17.15-8.869-22.276-17.666c-3.691-6.336-4.616-13.311-1.062-19.475c3.474-6.031,10.222-3.412,15.419-2.536
		C495.43,298.183,511.574,304.296,527.962,309.476z"/>
	<path fill-rule="evenodd" clip-rule="evenodd" fill="#68A7B1" d="M546.755,208.745c-0.028,9.194-1.934,18.206-2.065,27.465
		c-0.214,14.567,10.731,13.212,19.03,14.004c8.99,0.861,17.121-2.749,17.879-13.481c0.644-9.188,0.057-18.462,0.018-27.703
		c1.585,1.007,3.166,2.01,4.755,3.02c-0.057,13.257,5.828,25.626,4.547,39.294c-2.786,29.795-7.137,25.942-26.948,26.139
		c-23.218,0.23-24.716-1.746-26.448-24.995c-1.041-13.937,3.652-27.006,4.376-40.608
		C543.519,210.835,545.137,209.79,546.755,208.745z"/>
	<path fill-rule="evenodd" clip-rule="evenodd" fill="#40291B" d="M574.042,195.473c-7.702,0.151-13.82-1.197-12.113-11.33
		c0.604-3.582,0.492-7.946-4.256-8.54c-5.127-0.639-5.742,1.824-3.746,6.526c0.99,2.331-2.446,2.284-4.217,1.833
		c-3.869-0.99-7.667-2.271-11.487-3.431c-8.547-9.818-7.124-18.176,4.813-28.199c5.975-5.018,28.048-4.431,33.957,0.902
		c8.458,7.642,9.368,18.283,2.771,29.325C577.352,186.602,573.532,190.109,574.042,195.473z"/>
	<path fill-rule="evenodd" clip-rule="evenodd" fill="#F7F7F7" d="M486.338,334.992c5.051,0.729,9.33,4.47,14.744,3.793
		c16.697,7.889,35.482,10.738,51.122,21.186c-16.466,1.47-32.812,1.167-48.796-3.654c-5.713-1.725-11.296-3.892-17.029-5.554
		c-4.931-1.43-9.992-4.139-10.077-8.941C476.217,336.994,481.941,335.879,486.338,334.992z"/>
	<path fill-rule="evenodd" clip-rule="evenodd" fill="#F7F7F7" d="M627.354,338.68c4.898-1.274,9.795-2.546,14.697-3.819
		c8.321,3.883,9.992,7.96,0.624,12.841c-19.982,10.408-41.742,12.856-63.706,14.35c-0.858,0.059-1.819-1.402-2.734-2.156
		c12.315-8.307,26.48-12.172,40.33-16.789C620.258,341.874,624.429,341.788,627.354,338.68z"/>
	<path fill-rule="evenodd" clip-rule="evenodd" fill="#46444C" d="M564.521,338.172c-3.193,0-6.694,0.839-9.522-0.178
		c-5.755-2.072-10.667-5.617-10.096-12.872c0.552-7.032,5.975-6.188,10.717-6.307c5.198-0.129,10.406-0.536,15.582-0.284
		c4.338,0.212,11.503-7.252,12.189,4.107c0.519,8.558-1.291,15.273-11.678,15.595c-2.393,0.073-4.795,0.009-7.192,0.009
		C564.521,338.22,564.521,338.195,564.521,338.172z"/>
</g>
</svg>
